<svg width="151" height="27" viewBox="0 0 151 27" fill="none" xmlns="http://www.w3.org/2000/svg">
<path d="M14.0045 0C13.4076 0 12.8108 0.308883 12.5019 0.931883L9.08327 7.86342L1.4345 8.9733C0.0628485 9.17224 -0.486858 10.8632 0.507849 11.8318L6.04156 17.2241L4.73274 24.8415C4.49715 26.2079 5.93685 27.2497 7.16191 26.6058L14.0045 23.0144V0Z" fill="#F9BC2C"/>
<path d="M13.9169 0C14.5138 0 15.1106 0.308883 15.4195 0.931883L18.8381 7.86342L26.4869 8.9733C27.8585 9.17224 28.4082 10.8632 27.4135 11.8318L21.8798 17.2241L23.1887 24.8415C23.4242 26.2079 21.9845 27.2497 20.7595 26.6058L13.9169 23.0144V0Z" fill="#F9BC2C"/>
<path d="M44.7628 0C44.1659 0 43.5691 0.308883 43.2602 0.931883L39.8416 7.86342L32.1928 8.9733C30.8211 9.17224 30.2714 10.8632 31.2661 11.8318L36.7999 17.2241L35.491 24.8415C35.2554 26.2079 36.6952 27.2497 37.9202 26.6058L44.7628 23.0144V0Z" fill="#F9BC2C"/>
<path d="M44.6752 0C45.2721 0 45.8689 0.308883 46.1778 0.931883L49.5964 7.86342L57.2452 8.9733C58.6168 9.17224 59.1665 10.8632 58.1718 11.8318L52.6381 17.2241L53.947 24.8415C54.1825 26.2079 52.7428 27.2497 51.5178 26.6058L44.6752 23.0144V0Z" fill="#F9BC2C"/>
<path d="M75.5211 0C74.9242 0 74.3274 0.308883 74.0185 0.931883L70.5999 7.86342L62.9511 8.9733C61.5795 9.17224 61.0297 10.8632 62.0245 11.8318L67.5582 17.2241L66.2493 24.8415C66.0137 26.2079 67.4535 27.2497 68.6785 26.6058L75.5211 23.0144V0Z" fill="#F9BC2C"/>
<path d="M75.4335 0C76.0304 0 76.6272 0.308883 76.9361 0.931883L80.3547 7.86342L88.0035 8.9733C89.3751 9.17224 89.9248 10.8632 88.9301 11.8318L83.3964 17.2241L84.7053 24.8415C84.9408 26.2079 83.5011 27.2497 82.2761 26.6058L75.4335 23.0144V0Z" fill="#F9BC2C"/>
<path d="M106.28 0C105.683 0 105.086 0.308883 104.777 0.931883L101.359 7.86342L93.7099 8.9733C92.3382 9.17224 91.7885 10.8632 92.7832 11.8318L98.317 17.2241L97.0081 24.8415C96.7725 26.2079 98.2122 27.2497 99.4373 26.6058L106.28 23.0144V0Z" fill="#F9BC2C"/>
<path d="M106.192 0C106.789 0 107.386 0.308883 107.695 0.931883L111.114 7.86342L118.762 8.9733C120.134 9.17224 120.684 10.8632 119.689 11.8318L114.155 17.2241L115.464 24.8415C115.7 26.2079 114.26 27.2497 113.035 26.6058L106.192 23.0144V0Z" fill="#F9BC2C"/>
<g clip-path="url(#clip0_119_1361)">
<path d="M136.951 20.1716L143.459 23.5955L142.218 16.3498L147.485 11.2192L140.207 10.1617L136.951 3.56524V0C137.548 0 138.145 0.308883 138.454 0.931883L141.872 7.86342L149.521 8.9733C150.893 9.17224 151.442 10.8632 150.448 11.8318L144.914 17.2241L146.223 24.8415C146.458 26.2079 145.019 27.2497 143.794 26.6058L136.951 23.0144V20.1716Z" fill="#F9BC2C"/>
</g>
<path d="M137.038 0C136.441 0 135.844 0.308883 135.536 0.931883L132.117 7.86342L124.468 8.9733C123.097 9.17224 122.547 10.8632 123.542 11.8318L129.075 17.2241L127.766 24.8415C127.531 26.2079 128.971 27.2497 130.196 26.6058L137.038 23.0144V0Z" fill="#F9BC2C"/>
<defs>
<clipPath id="clip0_119_1361">
<rect width="14.0055" height="26.8047" fill="white" transform="translate(136.995)"/>
</clipPath>
</defs>
</svg>
