<svg width="159" height="29" viewBox="0 0 159 29" fill="none" xmlns="http://www.w3.org/2000/svg">
<path d="M14.7464 0C14.118 0 13.4895 0.325247 13.1643 0.981254L9.5645 8.28002L1.5105 9.44871C0.0661782 9.65819 -0.512652 11.4388 0.534755 12.4586L6.36164 18.1367L4.98348 26.1576C4.73541 27.5964 6.25139 28.6934 7.54135 28.0154L14.7464 24.2337V0Z" fill="#F9BC2C"/>
<path d="M14.6545 0C15.2829 0 15.9114 0.325247 16.2366 0.981254L19.8364 8.28002L27.8904 9.44871C29.3347 9.65819 29.9135 11.4388 28.8661 12.4586L23.0392 18.1367L24.4174 26.1576C24.6655 27.5964 23.1495 28.6934 21.8595 28.0154L14.6545 24.2337V0Z" fill="#F9BC2C"/>
<path d="M47.1346 0C46.5061 0 45.8777 0.325247 45.5525 0.981254L41.9527 8.28002L33.8987 9.44871C32.4544 9.65819 31.8755 11.4388 32.9229 12.4586L38.7498 18.1367L37.3717 26.1576C37.1236 27.5964 38.6396 28.6934 39.9295 28.0154L47.1346 24.2337V0Z" fill="#F9BC2C"/>
<path d="M47.0427 0C47.6711 0 48.2995 0.325247 48.6248 0.981254L52.2246 8.28002L60.2786 9.44871C61.7229 9.65819 62.3017 11.4388 61.2543 12.4586L55.4274 18.1367L56.8056 26.1576C57.0537 27.5964 55.5377 28.6934 54.2477 28.0154L47.0427 24.2337V0Z" fill="#F9BC2C"/>
<path d="M79.5223 0C78.8938 0 78.2654 0.325247 77.9401 0.981254L74.3404 8.28002L66.2864 9.44871C64.8421 9.65819 64.2632 11.4388 65.3106 12.4586L71.1375 18.1367L69.7594 26.1576C69.5113 27.5964 71.0273 28.6934 72.3172 28.0154L79.5223 24.2337V0Z" fill="#F9BC2C"/>
<path d="M79.4304 0C80.0588 0 80.6872 0.325247 81.0125 0.981254L84.6123 8.28002L92.6663 9.44871C94.1106 9.65819 94.6894 11.4388 93.642 12.4586L87.8151 18.1367L89.1933 26.1576C89.4414 27.5964 87.9254 28.6934 86.6354 28.0154L79.4304 24.2337V0Z" fill="#F9BC2C"/>
<g clip-path="url(#clip0_119_1359)">
<path d="M111.818 21.2403L118.67 24.8456L117.364 17.2161L122.91 11.8136L115.247 10.7001L111.818 3.75412V0C112.446 0 113.075 0.325247 113.4 0.981254L117 8.28002L125.054 9.44871C126.498 9.65819 127.077 11.4388 126.03 12.4586L120.203 18.1367L121.581 26.1576C121.829 27.5964 120.313 28.6934 119.023 28.0154L111.818 24.2337V21.2403Z" fill="#F9BC2C"/>
</g>
<path d="M111.91 0C111.282 0 110.654 0.325247 110.328 0.981254L106.729 8.28002L98.6746 9.44871C97.2302 9.65819 96.6514 11.4388 97.6988 12.4586L103.526 18.1367L102.148 26.1576C101.899 27.5964 103.415 28.6934 104.705 28.0154L111.91 24.2337V0Z" fill="#F9BC2C"/>
<g clip-path="url(#clip1_119_1359)">
<path d="M144.207 21.2403L151.059 24.8456L149.753 17.2161L155.299 11.8136L147.636 10.7001L144.207 3.75412V0C144.836 0 145.464 0.325247 145.789 0.981254L149.389 8.28002L157.443 9.44871C158.887 9.65819 159.466 11.4388 158.419 12.4586L152.592 18.1367L153.97 26.1576C154.218 27.5964 152.702 28.6934 151.412 28.0154L144.207 24.2337V21.2403Z" fill="#F9BC2C"/>
</g>
<g clip-path="url(#clip2_119_1359)">
<path d="M144.299 21.2403L137.446 24.8456L138.753 17.2161L133.207 11.8136L140.87 10.7001L144.299 3.75412V0C143.67 0 143.042 0.325247 142.717 0.981254L139.117 8.28002L131.063 9.44871C129.618 9.65819 129.04 11.4388 130.087 12.4586L135.914 18.1367L134.536 26.1576C134.288 27.5964 135.804 28.6934 137.094 28.0154L144.299 24.2337V21.2403Z" fill="#F9BC2C"/>
</g>
<defs>
<clipPath id="clip0_119_1359">
<rect width="14.7475" height="28.2248" fill="white" transform="translate(111.864)"/>
</clipPath>
<clipPath id="clip1_119_1359">
<rect width="14.7475" height="28.2248" fill="white" transform="translate(144.253)"/>
</clipPath>
<clipPath id="clip2_119_1359">
<rect width="14.7475" height="28.2248" fill="white" transform="translate(129.552)"/>
</clipPath>
</defs>
</svg>
