<svg width="28" height="27" viewBox="0 0 28 27" fill="none" xmlns="http://www.w3.org/2000/svg">
<path d="M14.0045 0C13.4076 0 12.8108 0.308883 12.5019 0.931883L9.08327 7.86342L1.4345 8.9733C0.0628485 9.17224 -0.486858 10.8632 0.507849 11.8318L6.04156 17.2241L4.73274 24.8415C4.49715 26.2079 5.93685 27.2497 7.16191 26.6058L14.0045 23.0144V0Z" fill="#F3A82F"/>
<path d="M13.9169 0C14.5138 0 15.1106 0.308883 15.4195 0.931883L18.8381 7.86342L26.4869 8.9733C27.8585 9.17224 28.4082 10.8632 27.4135 11.8318L21.8798 17.2241L23.1887 24.8415C23.4242 26.2079 21.9845 27.2497 20.7595 26.6058L13.9169 23.0144V0Z" fill="#F3A82F"/>
</svg>
